HIERARCHY
ROOT Hips
{
	OFFSET 0.00000 0.00000 0.00000
	CHANNELS 6 Xposition Yposition Zposition Zrotation Yrotation Xrotation 
	JOINT LHipJoint
	{
		OFFSET 0 0 0
		CHANNELS 3 Zrotation Yrotation Xrotation
		JOINT LeftHip
		{
			OFFSET 1.85742 -1.74412 1.01653
			CHANNELS 3 Zrotation Yrotation Xrotation
			JOINT LeftKnee
			{
				OFFSET 2.54803 -7.00067 0.00000
				CHANNELS 3 Zrotation Yrotation Xrotation
				JOINT LeftAnkle
				{
					OFFSET 2.51202 -6.90173 0.00000
					CHANNELS 3 Zrotation Yrotation Xrotation
					JOINT LeftToe
					{
						OFFSET 0.17547 -0.48209 1.64281
						CHANNELS 3 Zrotation Yrotation Xrotation
						End Site
						{
							OFFSET 0.00000 -0.00000 0.86587
						}
					}
				}
			}
		}
	}
	JOINT RHipJoint
	{
		OFFSET 0 0 0
		CHANNELS 3 Zrotation Yrotation Xrotation
		JOINT RightHip
		{
			OFFSET -1.95533 -1.74413 1.01654
			CHANNELS 3 Zrotation Yrotation Xrotation
			JOINT RightKnee
			{
				OFFSET -2.49465 -6.85400 0.00000
				CHANNELS 3 Zrotation Yrotation Xrotation
				JOINT RightAnkle
				{
					OFFSET -2.54783 -7.00010 0.00000
					CHANNELS 3 Zrotation Yrotation Xrotation
					JOINT RightToe
					{
						OFFSET -0.18513 -0.50864 1.69288
						CHANNELS 3 Zrotation Yrotation Xrotation
						End Site
						{
							OFFSET -0.00000 -0.00000 0.89242
						}
					}
				}
			}
		}
	}
	JOINT lowerback
	{
		OFFSET 0 0 0
		CHANNELS 3 Zrotation Yrotation Xrotation
		JOINT Chest
		{
			OFFSET 0.02173 2.16290 -0.15998
			CHANNELS 3 Zrotation Yrotation Xrotation
			JOINT Chest2
			{
				OFFSET 0.00940 2.17323 -0.00467
				CHANNELS 3 Zrotation Yrotation Xrotation
				JOINT lowerneck
				{
					OFFSET 0 0 0
					CHANNELS 3 Zrotation Yrotation Xrotation
					JOINT Neck
					{
						OFFSET 0.01475 1.85823 0.31113
						CHANNELS 3 Zrotation Yrotation Xrotation
						JOINT Head
						{
							OFFSET 0.01902 1.88783 -0.37187
							CHANNELS 3 Zrotation Yrotation Xrotation
							End Site
							{
								OFFSET 0.00489 1.93211 -0.16169
							}
						}
					}
				}
				JOINT LeftCollar
				{
					OFFSET 0 0 0
					CHANNELS 3 Zrotation Yrotation Xrotation
					JOINT LeftShoulder
					{
						OFFSET 3.34199 1.32384 -0.07862
CHANNELS 3 Zrotation Xrotation Yrotation
						JOINT LeftElbow
						{
OFFSET 0 -5.279500 0.000000
CHANNELS 3 Zrotation Xrotation Yrotation
							JOINT LeftWrist
							{
OFFSET 0 -3.535040 0.000000
CHANNELS 3 Zrotation Xrotation Yrotation
								JOINT lhand
								{
									OFFSET 0 0 0
CHANNELS 3 Zrotation Xrotation Yrotation
									JOINT LFingers
									{
OFFSET 0 -0.667950 0.000000
CHANNELS 3 Zrotation Xrotation Yrotation
										End Site
										{
OFFSET 0 -0.538520 0.000000
										}
									}
								}
								JOINT LThumb
								{
OFFSET 0 0.000000 0.000000
CHANNELS 3 Zrotation Xrotation Yrotation
									End Site
									{
OFFSET 0 -0.546740 0.546740
									}
								}
							}
						}
					}
				}
				JOINT RightCollar
				{
					OFFSET 0 0 0
					CHANNELS 3 Zrotation Yrotation Xrotation
					JOINT RightShoulder
					{
						OFFSET -3.16149 1.45719 -0.50507
CHANNELS 3 Zrotation Xrotation Yrotation
						JOINT RightElbow
						{
OFFSET 0 -5.250350 0.000000
CHANNELS 3 Zrotation Xrotation Yrotation
							JOINT RightWrist
							{
OFFSET 0 -3.588840 0.000000
CHANNELS 3 Zrotation Xrotation Yrotation
								JOINT rhand
								{
									OFFSET 0 0 0
CHANNELS 3 Zrotation Xrotation Yrotation
									JOINT RFingers
									{
OFFSET 0 -0.779240 0.000000
CHANNELS 3 Zrotation Xrotation Yrotation
										End Site
										{
OFFSET 0 -0.628240 0.000000
										}
									}
								}
								JOINT RThumb
								{
OFFSET 0 0.000000 0.000000
CHANNELS 3 Zrotation Xrotation Yrotation
									End Site
									{
OFFSET 0 -0.637830 0.637830
									}
								}
							}
						}
					}
				}
			}
		}
	}
}
MOTION
Frames: 10
Frame Time: 0.008333333333333333
-4.440124 17.825580 0.878420 -138.182927 85.451760 -133.675705 0.000000 0.000000 0.000000 -12.944423 -24.723390 -1.266920 0.691756 5.316925 14.814758 -0.535145 15.983184 -16.101736 2.682046 -10.161540 -29.501406 0.000000 0.000000 0.000000 20.492012 2.467338 1.934020 0.000000 0.000000 0.000000 1.053281 -17.968837 -9.350609 -0.020589 0.920825 -2.531044 1.599327 1.861382 -0.010455 1.426288 2.636366 -3.749216 0.483885 1.317293 -3.848307 0.568246 -2.534998 -22.475532 1.399567 -3.928911 15.924521 -0.152617 -1.644285 8.672548 0.000000 0.000000 0.000000 4.146284 7.610250 -41.692791 17.027538 -26.894077 4.099799 34.225645 -5.318252 -53.090401 0.000000 0.000000 0.000000 -7.125000 0.000000 0.000000 -69.183749 85.020266 64.442384 0.000000 0.000000 0.000000 -37.486379 -65.714119 10.743832 -99.289367 -59.671141 -68.035872 -28.668363 -27.433843 -6.453824 0.000000 0.000000 0.000000 7.125000 0.000000 0.000000 -1.409329 22.634077 -0.758817
-4.443929 17.826303 0.879023 -138.145172 85.519705 -133.605082 0.000000 0.000000 0.000000 -12.983813 -24.761368 -1.261670 0.688032 5.302990 14.774793 -0.541436 16.057744 -16.158810 2.670167 -10.140932 -29.434198 0.000000 0.000000 0.000000 20.444082 2.536382 1.885819 0.000000 0.000000 0.000000 1.053639 -17.958526 -9.236137 -0.024903 1.018560 -2.799805 1.573593 1.892404 -0.044384 1.396376 2.675046 -3.748503 0.467541 1.336893 -3.827943 0.532277 -2.557889 -22.477559 1.408632 -3.949130 15.860478 -0.146020 -1.656077 8.651870 0.000000 0.000000 0.000000 4.167072 7.634666 -41.677365 16.997149 -26.854054 4.086070 34.272628 -5.091191 -53.299280 0.000000 0.000000 0.000000 -7.125000 0.000000 0.000000 -71.668027 85.041501 66.882720 0.000000 0.000000 0.000000 -36.761492 -64.969308 11.843145 -100.031180 -59.616112 -68.676012 -28.864050 -27.423316 -6.638587 0.000000 0.000000 0.000000 7.125000 0.000000 0.000000 -1.541965 22.410545 -0.837991
-4.447110 17.828403 0.881506 -137.510127 85.540100 -132.935117 0.000000 0.000000 0.000000 -12.941773 -24.820802 -1.270134 0.685898 5.295091 14.752175 -0.541920 16.114693 -16.274557 2.728121 -10.241378 -29.762038 0.000000 0.000000 0.000000 20.473260 2.605696 1.841267 0.000000 0.000000 0.000000 1.051003 -17.933799 -9.196820 -0.021822 0.954251 -2.622843 1.593473 1.923427 -0.075977 1.380783 2.715866 -3.755588 0.440133 1.356578 -3.815790 0.520920 -2.585952 -22.497414 1.460942 -3.994168 15.833039 -0.132549 -1.672116 8.647502 0.000000 0.000000 0.000000 4.195411 7.619752 -41.657824 16.938344 -26.776426 4.059475 34.361748 -4.898034 -53.558464 0.000000 0.000000 0.000000 -7.125000 0.000000 0.000000 -74.841873 85.069768 70.013438 0.000000 0.000000 0.000000 -35.976333 -64.167747 13.017057 -100.897672 -59.546435 -69.423295 -29.073752 -27.382960 -6.930290 0.000000 0.000000 0.000000 7.125000 0.000000 0.000000 -1.677128 22.063428 -0.924796
-4.449166 17.828834 0.882783 -137.095149 85.568864 -132.518356 0.000000 0.000000 0.000000 -12.965988 -25.031776 -1.159200 0.685583 5.293752 14.748314 -0.547349 16.279667 -16.539444 2.768336 -10.310228 -29.987423 0.000000 0.000000 0.000000 20.480939 2.653726 1.834493 0.000000 0.000000 0.000000 1.052701 -17.942001 -9.153403 -0.026473 1.050835 -2.888745 1.605350 1.947893 -0.071955 1.356506 2.747741 -3.754007 0.407476 1.371462 -3.814542 0.627657 -2.567374 -22.542733 1.435458 -3.997681 15.819944 -0.159305 -1.669690 8.647966 0.000000 0.000000 0.000000 4.215658 7.621875 -41.583727 16.935498 -26.772627 4.058206 34.290010 -4.882256 -53.691160 0.000000 0.000000 0.000000 -7.125000 0.000000 0.000000 -76.206558 85.028999 71.312179 0.000000 0.000000 0.000000 -35.065254 -63.288829 14.372927 -101.913349 -59.456342 -70.298389 -29.836486 -27.307151 -7.179357 0.000000 0.000000 0.000000 7.125000 0.000000 0.000000 -2.215046 21.719464 -1.239584
-4.449759 17.828364 0.883918 -136.737536 85.614203 -132.144766 0.000000 0.000000 0.000000 -12.997906 -25.212194 -1.081451 0.686473 5.297145 14.758049 -0.559362 16.450024 -16.712116 2.744729 -10.269798 -29.854937 0.000000 0.000000 0.000000 20.471013 2.713700 1.818035 0.000000 0.000000 0.000000 1.059590 -17.989792 -9.110353 -0.027532 1.070897 -2.943826 1.596713 1.934984 -0.089161 1.358426 2.731030 -3.773706 0.414985 1.363551 -3.825753 0.622208 -2.508873 -22.549969 1.483341 -3.926374 15.835206 -0.132526 -1.630735 8.655553 0.000000 0.000000 0.000000 4.194693 7.685496 -41.460614 16.971808 -26.820603 4.074609 34.362927 -4.773895 -53.802285 0.000000 0.000000 0.000000 -7.125000 0.000000 0.000000 -77.646635 85.047050 72.746618 0.000000 0.000000 0.000000 -33.912289 -62.364794 16.056435 -103.067973 -59.343667 -71.292180 -30.493980 -27.416065 -7.548651 0.000000 0.000000 0.000000 7.125000 0.000000 0.000000 -2.663707 21.240506 -1.519893
-4.449700 17.829211 0.886566 -136.205038 85.647392 -131.561765 0.000000 0.000000 0.000000 -12.983373 -25.374477 -1.068628 0.688705 5.305416 14.781775 -0.578782 16.638797 -16.811888 2.732672 -10.249216 -29.787543 0.000000 0.000000 0.000000 20.488438 2.785717 1.774870 0.000000 0.000000 0.000000 1.064366 -18.022798 -9.075963 -0.028772 1.095289 -3.011119 1.608493 1.917439 -0.130014 1.358085 2.709451 -3.821713 0.409269 1.352900 -3.852087 0.597766 -2.450287 -22.605424 1.536659 -3.852832 15.936239 -0.101784 -1.589491 8.701283 0.000000 0.000000 0.000000 4.186454 7.715855 -41.369175 16.988860 -26.843076 4.082322 34.282752 -4.788293 -53.815199 0.000000 0.000000 0.000000 -7.125000 0.000000 0.000000 -77.606894 85.013005 72.673237 0.000000 0.000000 0.000000 -32.557134 -61.332972 17.916936 -104.403916 -59.200023 -72.440553 -30.869350 -27.509989 -7.926996 0.000000 0.000000 0.000000 7.125000 0.000000 0.000000 -2.904071 20.770565 -1.687893
-4.449700 17.828787 0.888882 -135.705783 85.678400 -131.052287 0.000000 0.000000 0.000000 -12.973534 -25.417621 -1.066768 0.692283 5.318800 14.820200 -0.584224 16.702846 -16.863522 2.733556 -10.250712 -29.792455 0.000000 0.000000 0.000000 20.506358 2.836656 1.779117 0.000000 0.000000 0.000000 1.066032 -18.035442 -9.071697 -0.031770 1.151028 -3.164629 1.625007 1.911967 -0.134158 1.359917 2.703585 -3.842203 0.401863 1.349549 -3.870475 0.545334 -2.407276 -22.698091 1.606063 -3.793860 15.976052 -0.062934 -1.555804 8.733187 0.000000 0.000000 0.000000 4.213919 7.748044 -41.414756 17.057071 -26.932946 4.113168 34.089561 -4.972174 -53.587005 0.000000 0.000000 0.000000 -7.125000 0.000000 0.000000 -74.596832 84.952912 69.658076 0.000000 0.000000 0.000000 -31.322281 -60.275744 19.634359 -105.725105 -59.043982 -73.574494 -31.361066 -27.337208 -7.949503 0.000000 0.000000 0.000000 7.125000 0.000000 0.000000 -3.255370 20.698975 -1.897577
-4.450002 17.827595 0.891639 -135.062301 85.705484 -130.433451 0.000000 0.000000 0.000000 -12.943642 -25.283251 -1.097405 0.695088 5.329453 14.850766 -0.575176 16.622731 -16.832766 2.685612 -10.167846 -29.521946 0.000000 0.000000 0.000000 20.538936 2.880993 1.816876 0.000000 0.000000 0.000000 1.070742 -18.065639 -9.016235 -0.042046 1.323561 -3.639554 1.619063 1.886144 -0.103606 1.419211 2.672483 -3.845653 0.465875 1.335445 -3.894676 0.349884 -2.336856 -22.652111 1.763694 -3.662655 15.802620 0.042127 -1.492043 8.672287 0.000000 0.000000 0.000000 4.186438 7.793541 -41.469487 17.180850 -27.095499 4.169363 33.968824 -5.123824 -53.400451 0.000000 0.000000 0.000000 -7.125000 0.000000 0.000000 -72.254948 84.910819 67.325344 0.000000 0.000000 0.000000 -30.255625 -59.238077 21.278600 -106.932437 -58.888410 -74.609167 -31.796683 -26.974653 -7.875953 0.000000 0.000000 0.000000 7.125000 0.000000 0.000000 -3.574337 20.743585 -2.080640
-4.449774 17.826974 0.894634 -134.362000 85.757429 -129.744519 0.000000 0.000000 0.000000 -12.924866 -25.103545 -1.132423 0.693562 5.323665 14.834122 -0.577138 16.613397 -16.782983 2.618914 -10.050960 -29.141877 0.000000 0.000000 0.000000 20.552360 2.947454 1.849009 0.000000 0.000000 0.000000 1.073261 -18.079412 -8.959001 -0.051274 1.460686 -4.017443 1.631273 1.897681 -0.099885 1.429942 2.688903 -3.846865 0.469489 1.343457 -3.897931 0.311362 -2.279571 -22.646365 1.744519 -3.564821 15.665586 0.056188 -1.453178 8.623853 0.000000 0.000000 0.000000 4.205839 7.741296 -41.516948 17.292047 -27.241117 4.220179 34.194786 -4.837391 -53.527536 0.000000 0.000000 0.000000 -7.125000 0.000000 0.000000 -74.139603 85.001191 69.257651 0.000000 0.000000 0.000000 -29.268064 -58.163602 22.728612 -108.015063 -58.736872 -75.535209 -32.044480 -26.314598 -7.621442 0.000000 0.000000 0.000000 7.125000 0.000000 0.000000 -3.775233 21.017749 -2.174106
-4.447636 17.825255 0.897038 -133.763938 85.847330 -129.158643 0.000000 0.000000 0.000000 -12.970278 -25.059324 -1.063857 0.688889 5.306216 14.784036 -0.596269 16.744109 -16.764605 2.579123 -9.980358 -28.913218 0.000000 0.000000 0.000000 20.522288 3.027382 1.896130 0.000000 0.000000 0.000000 1.072526 -18.074067 -8.965120 -0.049974 1.442556 -3.967430 1.652941 1.934531 -0.155808 1.380560 2.734215 -3.832598 0.407611 1.364508 -3.847903 0.472438 -2.222988 -22.635831 1.561659 -3.499269 15.567870 -0.022243 -1.434869 8.581194 0.000000 0.000000 0.000000 4.330837 7.664719 -41.658348 17.367355 -27.339551 4.254678 34.416604 -4.622320 -53.587370 0.000000 0.000000 0.000000 -7.125000 0.000000 0.000000 -75.291063 85.090281 70.474574 0.000000 0.000000 0.000000 -28.258417 -57.061516 24.069304 -108.986005 -58.592615 -76.364573 -32.493328 -25.588124 -7.160121 0.000000 0.000000 0.000000 7.125000 0.000000 0.000000 -4.140523 21.517531 -2.338814
